P3
# Created by Paint Shop Pro 6
224 18
255
255 255 255 37 83 128 37 83 128 37 83 128 37 83 128 37 83 128 37 83 128 
37 83 128 37 83 128 37 83 128 37 83 128 37 83 128 37 83 128 37 83 128 37 83 128 
37 83 128 37 83 128 37 83 128 37 83 128 37 83 128 37 83 128 37 83 128 37 83 128 
255 255 255 255 255 255 255 255 255 37 83 128 37 83 128 37 83 128 37 83 128 
37 83 128 37 83 128 37 83 128 37 83 128 37 83 128 37 83 128 37 83 128 37 83 128 
37 83 128 37 83 128 37 83 128 37 83 128 37 83 128 37 83 128 37 83 128 37 83 128 
37 83 128 37 83 128 255 255 255 255 255 255 255 255 255 37 83 128 37 83 128 
37 83 128 37 83 128 37 83 128 37 83 128 37 83 128 37 83 128 37 83 128 37 83 128 
37 83 128 37 83 128 37 83 128 37 83 128 37 83 128 37 83 128 37 83 128 37 83 128 
37 83 128 37 83 128 37 83 128 37 83 128 255 255 255 255 255 255 255 255 255 
218 172 127 218 172 127 218 172 127 218 172 127 218 172 127 218 172 127 
218 172 127 218 172 127 218 172 127 218 172 127 218 172 127 218 172 127 
218 172 127 218 172 127 218 172 127 218 172 127 218 172 127 218 172 127 
218 172 127 218 172 127 218 172 127 218 172 127 255 255 255 255 255 255 
255 255 255 218 172 127 218 172 127 218 172 127 218 172 127 218 172 127 
218 172 127 218 172 127 218 172 127 218 172 127 218 172 127 218 172 127 
218 172 127 218 172 127 218 172 127 218 172 127 218 172 127 218 172 127 
218 172 127 218 172 127 218 172 127 218 172 127 218 172 127 255 255 255 
255 255 255 255 255 255 218 172 127 218 172 127 218 172 127 218 172 127 
218 172 127 218 172 127 218 172 127 218 172 127 218 172 127 218 172 127 
218 172 127 218 172 127 218 172 127 218 172 127 218 172 127 218 172 127 
218 172 127 218 172 127 218 172 127 218 172 127 218 172 127 218 172 127 
255 255 255 255 255 255 255 255 255 145 145 145 145 145 145 145 145 145 
145 145 145 145 145 145 145 145 145 145 145 145 145 145 145 145 145 145 
145 145 145 145 145 145 145 145 145 145 145 145 145 145 145 145 145 145 
145 145 145 145 145 145 145 145 145 145 145 145 145 145 145 145 145 145 
145 145 145 255 255 255 255 255 255 255 255 255 145 145 145 145 145 145 
145 145 145 145 145 145 145 145 145 145 145 145 145 145 145 145 145 145 
145 145 145 145 145 145 145 145 145 145 145 145 145 145 145 145 145 145 
145 145 145 145 145 145 145 145 145 145 145 145 145 145 145 145 145 145 
145 145 145 145 145 145 255 255 255 255 255 255 255 255 255 145 145 145 
145 145 145 145 145 145 145 145 145 145 145 145 145 145 145 145 145 145 
145 145 145 145 145 145 145 145 145 145 145 145 145 145 145 145 145 145 
145 145 145 145 145 145 145 145 145 145 145 145 145 145 145 145 145 145 
145 145 145 145 145 145 145 145 145 255 255 255 36 80 125 107 166 226 165 202 238 
165 202 238 165 202 238 165 202 238 165 202 238 165 202 238 165 202 238 
165 202 238 165 202 238 165 202 238 165 202 238 165 202 238 165 202 238 
165 202 238 165 202 238 165 202 238 165 202 238 165 202 238 165 202 238 
165 202 238 107 166 226 36 80 125 255 255 255 36 80 125 107 166 226 165 202 238 
165 202 238 165 202 238 165 202 238 165 202 238 165 202 238 165 202 238 
165 202 238 165 202 238 165 202 238 165 202 238 165 202 238 165 202 238 
165 202 238 165 202 238 165 202 238 165 202 238 165 202 238 165 202 238 
165 202 238 107 166 226 36 80 125 255 255 255 36 80 125 107 166 226 165 202 238 
165 202 238 165 202 238 165 202 238 165 202 238 165 202 238 165 202 238 
165 202 238 165 202 238 165 202 238 165 202 238 165 202 238 165 202 238 
165 202 238 165 202 238 165 202 238 165 202 238 165 202 238 165 202 238 
165 202 238 107 166 226 36 80 125 255 255 255 219 175 130 148 89 29 90 53 17 
90 53 17 90 53 17 90 53 17 90 53 17 90 53 17 90 53 17 90 53 17 90 53 17 
90 53 17 90 53 17 90 53 17 90 53 17 90 53 17 90 53 17 90 53 17 90 53 17 
90 53 17 90 53 17 90 53 17 148 89 29 219 175 130 255 255 255 219 175 130 
148 89 29 90 53 17 90 53 17 90 53 17 90 53 17 90 53 17 90 53 17 90 53 17 
90 53 17 90 53 17 90 53 17 90 53 17 90 53 17 90 53 17 90 53 17 90 53 17 
90 53 17 90 53 17 90 53 17 90 53 17 90 53 17 148 89 29 219 175 130 255 255 255 
219 175 130 148 89 29 90 53 17 90 53 17 90 53 17 90 53 17 90 53 17 90 53 17 
90 53 17 90 53 17 90 53 17 90 53 17 90 53 17 90 53 17 90 53 17 90 53 17 
90 53 17 90 53 17 90 53 17 90 53 17 90 53 17 90 53 17 148 89 29 219 175 130 
255 255 255 143 143 143 203 203 203 225 225 225 225 225 225 225 225 225 
225 225 225 225 225 225 225 225 225 225 225 225 225 225 225 225 225 225 
225 225 225 225 225 225 225 225 225 225 225 225 225 225 225 225 225 225 
225 225 225 225 225 225 225 225 225 225 225 225 225 225 225 203 203 203 
143 143 143 255 255 255 143 143 143 203 203 203 225 225 225 225 225 225 
225 225 225 225 225 225 225 225 225 225 225 225 225 225 225 225 225 225 
225 225 225 225 225 225 225 225 225 225 225 225 225 225 225 225 225 225 
225 225 225 225 225 225 225 225 225 225 225 225 225 225 225 225 225 225 
203 203 203 143 143 143 255 255 255 143 143 143 203 203 203 225 225 225 
225 225 225 225 225 225 225 225 225 225 225 225 225 225 225 225 225 225 
225 225 225 225 225 225 225 225 225 225 225 225 225 225 225 225 225 225 
225 225 225 225 225 225 225 225 225 225 225 225 225 225 225 225 225 225 
225 225 225 203 203 203 143 143 143 35 78 122 158 198 237 83 128 208 83 128 208 
83 128 208 83 128 208 83 128 208 83 128 208 83 128 208 83 128 208 83 128 208 
83 128 208 83 128 208 83 128 208 83 128 208 83 128 208 83 128 208 83 128 208 
83 128 208 83 128 208 83 128 208 83 128 208 158 198 237 35 78 122 255 255 255 
35 78 122 158 198 237 83 128 208 83 128 208 83 128 208 83 128 208 83 128 208 
83 128 208 83 128 208 83 128 208 83 128 208 83 128 208 83 128 208 83 128 208 
83 128 208 83 128 208 83 128 208 83 128 208 83 128 208 83 128 208 83 128 208 
83 128 208 158 198 237 35 78 122 255 255 255 35 78 122 158 198 237 83 128 208 
83 128 208 83 128 208 83 128 208 83 128 208 83 128 208 83 128 208 83 128 208 
83 128 208 83 128 208 83 128 208 83 128 208 83 128 208 83 128 208 83 128 208 
83 128 208 83 128 208 83 128 208 83 128 208 83 128 208 158 198 237 35 78 122 
255 255 255 220 177 133 97 57 18 172 127 47 172 127 47 172 127 47 172 127 47 
172 127 47 172 127 47 172 127 47 172 127 47 172 127 47 172 127 47 172 127 47 
172 127 47 172 127 47 172 127 47 172 127 47 172 127 47 172 127 47 172 127 47 
172 127 47 172 127 47 97 57 18 220 177 133 255 255 255 220 177 133 97 57 18 
172 127 47 172 127 47 172 127 47 172 127 47 172 127 47 172 127 47 172 127 47 
172 127 47 172 127 47 172 127 47 172 127 47 172 127 47 172 127 47 172 127 47 
172 127 47 172 127 47 172 127 47 172 127 47 172 127 47 172 127 47 97 57 18 
220 177 133 255 255 255 220 177 133 97 57 18 172 127 47 172 127 47 172 127 47 
172 127 47 172 127 47 172 127 47 172 127 47 172 127 47 172 127 47 172 127 47 
172 127 47 172 127 47 172 127 47 172 127 47 172 127 47 172 127 47 172 127 47 
172 127 47 172 127 47 172 127 47 97 57 18 220 177 133 255 255 255 141 141 141 
223 223 223 183 183 183 183 183 183 183 183 183 183 183 183 183 183 183 
183 183 183 183 183 183 183 183 183 183 183 183 183 183 183 183 183 183 
183 183 183 183 183 183 183 183 183 183 183 183 183 183 183 183 183 183 
183 183 183 183 183 183 183 183 183 223 223 223 141 141 141 255 255 255 
141 141 141 223 223 223 183 183 183 183 183 183 183 183 183 183 183 183 
183 183 183 183 183 183 183 183 183 183 183 183 183 183 183 183 183 183 
183 183 183 183 183 183 183 183 183 183 183 183 183 183 183 183 183 183 
183 183 183 183 183 183 183 183 183 183 183 183 223 223 223 141 141 141 
255 255 255 141 141 141 223 223 223 183 183 183 183 183 183 183 183 183 
183 183 183 183 183 183 183 183 183 183 183 183 183 183 183 183 183 183 
183 183 183 183 183 183 183 183 183 183 183 183 183 183 183 183 183 183 
183 183 183 183 183 183 183 183 183 183 183 183 183 183 183 223 223 223 
141 141 141 34 76 118 152 194 235 82 127 206 82 127 206 82 127 206 82 127 206 
82 127 206 82 127 206 82 127 206 82 127 206 82 127 206 82 127 206 82 127 206 
82 127 206 82 127 206 82 127 206 82 127 206 82 127 206 82 127 206 82 127 206 
82 127 206 82 127 206 152 194 235 34 76 118 255 255 255 34 76 118 152 194 235 
82 127 206 82 127 206 82 127 206 82 127 206 82 127 206 82 127 206 82 127 206 
82 127 206 82 127 206 82 127 206 82 127 206 82 127 206 82 127 206 82 127 206 
82 127 206 82 127 206 82 127 206 82 127 206 82 127 206 82 127 206 152 194 235 
34 76 118 255 255 255 34 76 118 152 194 235 82 127 206 82 127 206 82 127 206 
82 127 206 82 127 206 82 127 206 82 127 206 82 127 206 82 127 206 82 127 206 
82 127 206 82 127 206 82 127 206 82 127 206 82 127 206 82 127 206 82 127 206 
82 127 206 82 127 206 82 127 206 152 194 235 34 76 118 255 255 255 221 179 137 
103 61 20 173 128 49 173 128 49 173 128 49 173 128 49 173 128 49 173 128 49 
173 128 49 173 128 49 173 128 49 173 128 49 173 128 49 173 128 49 173 128 49 
173 128 49 173 128 49 173 128 49 173 128 49 173 128 49 173 128 49 173 128 49 
103 61 20 221 179 137 255 255 255 221 179 137 103 61 20 173 128 49 173 128 49 
173 128 49 173 128 49 173 128 49 173 128 49 173 128 49 173 128 49 173 128 49 
173 128 49 173 128 49 173 128 49 173 128 49 173 128 49 173 128 49 173 128 49 
173 128 49 173 128 49 173 128 49 173 128 49 103 61 20 221 179 137 255 255 255 
221 179 137 103 61 20 173 128 49 173 128 49 173 128 49 173 128 49 173 128 49 
173 128 49 173 128 49 173 128 49 173 128 49 173 128 49 173 128 49 173 128 49 
173 128 49 173 128 49 173 128 49 173 128 49 173 128 49 173 128 49 173 128 49 
173 128 49 103 61 20 221 179 137 255 255 255 140 140 140 220 220 220 182 182 182 
182 182 182 182 182 182 182 182 182 182 182 182 182 182 182 182 182 182 
182 182 182 182 182 182 182 182 182 182 182 182 182 182 182 182 182 182 
182 182 182 182 182 182 182 182 182 182 182 182 182 182 182 182 182 182 
182 182 182 220 220 220 140 140 140 255 255 255 140 140 140 220 220 220 
182 182 182 182 182 182 182 182 182 182 182 182 182 182 182 182 182 182 
182 182 182 182 182 182 182 182 182 182 182 182 182 182 182 182 182 182 
182 182 182 182 182 182 182 182 182 182 182 182 182 182 182 182 182 182 
182 182 182 182 182 182 220 220 220 140 140 140 255 255 255 140 140 140 
220 220 220 182 182 182 182 182 182 182 182 182 182 182 182 182 182 182 
182 182 182 182 182 182 182 182 182 182 182 182 182 182 182 182 182 182 
182 182 182 182 182 182 182 182 182 182 182 182 182 182 182 182 182 182 
182 182 182 182 182 182 182 182 182 220 220 220 140 140 140 33 74 115 145 189 234 
81 125 203 81 125 203 81 125 203 81 125 203 81 125 203 81 125 203 81 125 203 
81 125 203 81 125 203 81 125 203 81 125 203 81 125 203 81 125 203 81 125 203 
81 125 203 81 125 203 81 125 203 81 125 203 81 125 203 81 125 203 145 189 234 
33 74 115 255 255 255 33 74 115 145 189 234 81 125 203 81 125 203 81 125 203 
81 125 203 81 125 203 81 125 203 81 125 203 81 125 203 81 125 203 81 125 203 
81 125 203 81 125 203 81 125 203 81 125 203 81 125 203 81 125 203 81 125 203 
81 125 203 81 125 203 81 125 203 145 189 234 33 74 115 255 255 255 33 74 115 
145 189 234 81 125 203 81 125 203 81 125 203 81 125 203 81 125 203 81 125 203 
81 125 203 81 125 203 81 125 203 81 125 203 81 125 203 81 125 203 81 125 203 
81 125 203 81 125 203 81 125 203 81 125 203 81 125 203 81 125 203 81 125 203 
145 189 234 33 74 115 255 255 255 222 181 140 110 66 21 174 130 52 174 130 52 
174 130 52 174 130 52 174 130 52 174 130 52 174 130 52 174 130 52 174 130 52 
174 130 52 174 130 52 174 130 52 174 130 52 174 130 52 174 130 52 174 130 52 
174 130 52 174 130 52 174 130 52 174 130 52 110 66 21 222 181 140 255 255 255 
222 181 140 110 66 21 174 130 52 174 130 52 174 130 52 174 130 52 174 130 52 
174 130 52 174 130 52 174 130 52 174 130 52 174 130 52 174 130 52 174 130 52 
174 130 52 174 130 52 174 130 52 174 130 52 174 130 52 174 130 52 174 130 52 
174 130 52 110 66 21 222 181 140 255 255 255 222 181 140 110 66 21 174 130 52 
174 130 52 174 130 52 174 130 52 174 130 52 174 130 52 174 130 52 174 130 52 
174 130 52 174 130 52 174 130 52 174 130 52 174 130 52 174 130 52 174 130 52 
174 130 52 174 130 52 174 130 52 174 130 52 174 130 52 110 66 21 222 181 140 
255 255 255 138 138 138 218 218 218 181 181 181 181 181 181 181 181 181 
181 181 181 181 181 181 181 181 181 181 181 181 181 181 181 181 181 181 
181 181 181 181 181 181 181 181 181 181 181 181 181 181 181 181 181 181 
181 181 181 181 181 181 181 181 181 181 181 181 181 181 181 218 218 218 
138 138 138 255 255 255 138 138 138 218 218 218 181 181 181 181 181 181 
181 181 181 181 181 181 181 181 181 181 181 181 181 181 181 181 181 181 
181 181 181 181 181 181 181 181 181 181 181 181 181 181 181 181 181 181 
181 181 181 181 181 181 181 181 181 181 181 181 181 181 181 181 181 181 
218 218 218 138 138 138 255 255 255 138 138 138 218 218 218 181 181 181 
181 181 181 181 181 181 181 181 181 181 181 181 181 181 181 181 181 181 
181 181 181 181 181 181 181 181 181 181 181 181 181 181 181 181 181 181 
181 181 181 181 181 181 181 181 181 181 181 181 181 181 181 181 181 181 
181 181 181 218 218 218 138 138 138 32 73 113 140 187 233 79 123 201 79 123 201 
79 123 201 79 123 201 79 123 201 79 123 201 79 123 201 79 123 201 79 123 201 
79 123 201 79 123 201 79 123 201 79 123 201 79 123 201 79 123 201 79 123 201 
79 123 201 79 123 201 79 123 201 79 123 201 140 187 233 32 73 113 255 255 255 
32 73 113 140 187 233 79 123 201 79 123 201 79 123 201 79 123 201 79 123 201 
79 123 201 254 254 254 254 254 254 254 254 254 254 254 254 254 254 254 
254 254 254 254 254 254 254 254 254 79 123 201 79 123 201 79 123 201 79 123 201 
79 123 201 79 123 201 140 187 233 32 73 113 255 255 255 32 73 113 140 187 233 
79 123 201 79 123 201 79 123 201 79 123 201 79 123 201 79 123 201 254 254 254 
254 254 254 79 123 201 79 123 201 79 123 201 79 123 201 254 254 254 254 254 254 
79 123 201 79 123 201 79 123 201 79 123 201 79 123 201 79 123 201 140 187 233 
32 73 113 255 255 255 223 182 142 115 68 22 176 132 54 176 132 54 176 132 54 
176 132 54 176 132 54 176 132 54 176 132 54 176 132 54 176 132 54 176 132 54 
176 132 54 176 132 54 176 132 54 176 132 54 176 132 54 176 132 54 176 132 54 
176 132 54 176 132 54 176 132 54 115 68 22 223 182 142 255 255 255 223 182 142 
115 68 22 176 132 54 176 132 54 176 132 54 176 132 54 176 132 54 176 132 54 
0 0 0 0 0 0 0 0 0 0 0 0 0 0 0 0 0 0 0 0 0 0 0 0 176 132 54 176 132 54 176 132 54 
176 132 54 176 132 54 176 132 54 115 68 22 223 182 142 255 255 255 223 182 142 
115 68 22 176 132 54 176 132 54 176 132 54 176 132 54 176 132 54 176 132 54 
2 1 1 2 1 1 176 132 54 176 132 54 176 132 54 176 132 54 2 1 1 2 1 1 176 132 54 
176 132 54 176 132 54 176 132 54 176 132 54 176 132 54 115 68 22 223 182 142 
255 255 255 137 137 137 216 216 216 180 180 180 180 180 180 180 180 180 
180 180 180 180 180 180 180 180 180 180 180 180 180 180 180 180 180 180 
180 180 180 180 180 180 180 180 180 180 180 180 180 180 180 180 180 180 
180 180 180 180 180 180 180 180 180 180 180 180 180 180 180 216 216 216 
137 137 137 255 255 255 137 137 137 216 216 216 180 180 180 180 180 180 
180 180 180 180 180 180 180 180 180 180 180 180 254 254 254 254 254 254 
254 254 254 254 254 254 254 254 254 254 254 254 254 254 254 254 254 254 
180 180 180 180 180 180 180 180 180 180 180 180 180 180 180 180 180 180 
216 216 216 137 137 137 255 255 255 137 137 137 216 216 216 180 180 180 
180 180 180 180 180 180 180 180 180 180 180 180 180 180 180 254 254 254 
254 254 254 180 180 180 180 180 180 180 180 180 180 180 180 254 254 254 
254 254 254 180 180 180 180 180 180 180 180 180 180 180 180 180 180 180 
180 180 180 216 216 216 137 137 137 31 71 110 133 182 232 78 122 199 78 122 199 
78 122 199 78 122 199 78 122 199 78 122 199 78 122 199 78 122 199 78 122 199 
78 122 199 78 122 199 78 122 199 78 122 199 78 122 199 78 122 199 78 122 199 
78 122 199 78 122 199 78 122 199 78 122 199 133 182 232 31 71 110 255 255 255 
31 71 110 133 182 232 78 122 199 78 122 199 78 122 199 78 122 199 78 122 199 
78 122 199 254 254 254 254 254 254 254 254 254 254 254 254 254 254 254 
254 254 254 254 254 254 254 254 254 78 122 199 78 122 199 78 122 199 78 122 199 
78 122 199 78 122 199 133 182 232 31 71 110 255 255 255 31 71 110 133 182 232 
78 122 199 78 122 199 78 122 199 78 122 199 78 122 199 78 122 199 254 254 254 
254 254 254 254 254 254 78 122 199 78 122 199 254 254 254 254 254 254 254 254 254 
78 122 199 78 122 199 78 122 199 78 122 199 78 122 199 78 122 199 133 182 232 
31 71 110 255 255 255 224 184 145 122 73 23 177 133 56 177 133 56 177 133 56 
177 133 56 177 133 56 177 133 56 177 133 56 177 133 56 177 133 56 177 133 56 
177 133 56 177 133 56 177 133 56 177 133 56 177 133 56 177 133 56 177 133 56 
177 133 56 177 133 56 177 133 56 122 73 23 224 184 145 255 255 255 224 184 145 
122 73 23 177 133 56 177 133 56 177 133 56 177 133 56 177 133 56 177 133 56 
0 0 0 0 0 0 0 0 0 0 0 0 0 0 0 0 0 0 0 0 0 0 0 0 177 133 56 177 133 56 177 133 56 
177 133 56 177 133 56 177 133 56 122 73 23 224 184 145 255 255 255 224 184 145 
122 73 23 177 133 56 177 133 56 177 133 56 177 133 56 177 133 56 177 133 56 
2 1 1 2 1 1 2 1 1 177 133 56 177 133 56 2 1 1 2 1 1 2 1 1 177 133 56 177 133 56 
177 133 56 177 133 56 177 133 56 177 133 56 122 73 23 224 184 145 255 255 255 
135 135 135 213 213 213 179 179 179 179 179 179 179 179 179 179 179 179 
179 179 179 179 179 179 179 179 179 179 179 179 179 179 179 179 179 179 
179 179 179 179 179 179 179 179 179 179 179 179 179 179 179 179 179 179 
179 179 179 179 179 179 179 179 179 179 179 179 213 213 213 135 135 135 
255 255 255 135 135 135 213 213 213 179 179 179 179 179 179 179 179 179 
179 179 179 179 179 179 179 179 179 254 254 254 254 254 254 254 254 254 
254 254 254 254 254 254 254 254 254 254 254 254 254 254 254 179 179 179 
179 179 179 179 179 179 179 179 179 179 179 179 179 179 179 213 213 213 
135 135 135 255 255 255 135 135 135 213 213 213 179 179 179 179 179 179 
179 179 179 179 179 179 179 179 179 179 179 179 254 254 254 254 254 254 
254 254 254 179 179 179 179 179 179 254 254 254 254 254 254 254 254 254 
179 179 179 179 179 179 179 179 179 179 179 179 179 179 179 179 179 179 
213 213 213 135 135 135 30 68 106 127 179 231 77 120 197 77 120 197 77 120 197 
77 120 197 77 120 197 77 120 197 77 120 197 77 120 197 77 120 197 77 120 197 
77 120 197 77 120 197 77 120 197 77 120 197 77 120 197 77 120 197 77 120 197 
77 120 197 77 120 197 77 120 197 127 179 231 30 68 106 255 255 255 30 68 106 
127 179 231 77 120 197 77 120 197 77 120 197 77 120 197 77 120 197 77 120 197 
254 254 254 77 120 197 77 120 197 77 120 197 77 120 197 77 120 197 77 120 197 
254 254 254 77 120 197 77 120 197 77 120 197 77 120 197 77 120 197 77 120 197 
127 179 231 30 68 106 255 255 255 30 68 106 127 179 231 77 120 197 77 120 197 
77 120 197 77 120 197 77 120 197 77 120 197 77 120 197 254 254 254 254 254 254 
254 254 254 254 254 254 254 254 254 254 254 254 77 120 197 77 120 197 77 120 197 
77 120 197 77 120 197 77 120 197 77 120 197 127 179 231 30 68 106 255 255 255 
225 187 149 128 76 24 178 135 58 178 135 58 178 135 58 178 135 58 178 135 58 
178 135 58 178 135 58 178 135 58 178 135 58 178 135 58 178 135 58 178 135 58 
178 135 58 178 135 58 178 135 58 178 135 58 178 135 58 178 135 58 178 135 58 
178 135 58 128 76 24 225 187 149 255 255 255 225 187 149 128 76 24 178 135 58 
178 135 58 178 135 58 178 135 58 178 135 58 178 135 58 0 0 0 178 135 58 
178 135 58 178 135 58 178 135 58 178 135 58 178 135 58 0 0 0 178 135 58 
178 135 58 178 135 58 178 135 58 178 135 58 178 135 58 128 76 24 225 187 149 
255 255 255 225 187 149 128 76 24 178 135 58 178 135 58 178 135 58 178 135 58 
178 135 58 178 135 58 178 135 58 2 1 1 2 1 1 2 1 1 2 1 1 2 1 1 2 1 1 178 135 58 
178 135 58 178 135 58 178 135 58 178 135 58 178 135 58 178 135 58 128 76 24 
225 187 149 255 255 255 132 132 132 212 212 212 178 178 178 178 178 178 
178 178 178 178 178 178 178 178 178 178 178 178 178 178 178 178 178 178 
178 178 178 178 178 178 178 178 178 178 178 178 178 178 178 178 178 178 
178 178 178 178 178 178 178 178 178 178 178 178 178 178 178 178 178 178 
212 212 212 132 132 132 255 255 255 132 132 132 212 212 212 178 178 178 
178 178 178 178 178 178 178 178 178 178 178 178 178 178 178 254 254 254 
178 178 178 178 178 178 178 178 178 178 178 178 178 178 178 178 178 178 
254 254 254 178 178 178 178 178 178 178 178 178 178 178 178 178 178 178 
178 178 178 212 212 212 132 132 132 255 255 255 132 132 132 212 212 212 
178 178 178 178 178 178 178 178 178 178 178 178 178 178 178 178 178 178 
178 178 178 254 254 254 254 254 254 254 254 254 254 254 254 254 254 254 
254 254 254 178 178 178 178 178 178 178 178 178 178 178 178 178 178 178 
178 178 178 178 178 178 212 212 212 132 132 132 29 66 103 121 175 229 75 118 194 
75 118 194 75 118 194 75 118 194 75 118 194 75 118 194 75 118 194 75 118 194 
75 118 194 75 118 194 75 118 194 75 118 194 75 118 194 75 118 194 75 118 194 
75 118 194 75 118 194 75 118 194 75 118 194 75 118 194 121 175 229 29 66 103 
255 255 255 29 66 103 121 175 229 75 118 194 75 118 194 75 118 194 75 118 194 
75 118 194 75 118 194 254 254 254 75 118 194 75 118 194 75 118 194 75 118 194 
75 118 194 75 118 194 254 254 254 75 118 194 75 118 194 75 118 194 75 118 194 
75 118 194 75 118 194 121 175 229 29 66 103 255 255 255 29 66 103 121 175 229 
75 118 194 75 118 194 75 118 194 75 118 194 75 118 194 75 118 194 75 118 194 
75 118 194 254 254 254 254 254 254 254 254 254 254 254 254 75 118 194 75 118 194 
75 118 194 75 118 194 75 118 194 75 118 194 75 118 194 75 118 194 121 175 229 
29 66 103 255 255 255 226 189 152 134 80 26 180 137 61 180 137 61 180 137 61 
180 137 61 180 137 61 180 137 61 180 137 61 180 137 61 180 137 61 180 137 61 
180 137 61 180 137 61 180 137 61 180 137 61 180 137 61 180 137 61 180 137 61 
180 137 61 180 137 61 180 137 61 134 80 26 226 189 152 255 255 255 226 189 152 
134 80 26 180 137 61 180 137 61 180 137 61 180 137 61 180 137 61 180 137 61 
0 0 0 180 137 61 180 137 61 180 137 61 180 137 61 180 137 61 180 137 61 
0 0 0 180 137 61 180 137 61 180 137 61 180 137 61 180 137 61 180 137 61 
134 80 26 226 189 152 255 255 255 226 189 152 134 80 26 180 137 61 180 137 61 
180 137 61 180 137 61 180 137 61 180 137 61 180 137 61 180 137 61 2 1 1 
2 1 1 2 1 1 2 1 1 180 137 61 180 137 61 180 137 61 180 137 61 180 137 61 
180 137 61 180 137 61 180 137 61 134 80 26 226 189 152 255 255 255 130 130 130 
209 209 209 176 176 176 176 176 176 176 176 176 176 176 176 176 176 176 
176 176 176 176 176 176 176 176 176 176 176 176 176 176 176 176 176 176 
176 176 176 176 176 176 176 176 176 176 176 176 176 176 176 176 176 176 
176 176 176 176 176 176 176 176 176 209 209 209 130 130 130 255 255 255 
130 130 130 209 209 209 176 176 176 176 176 176 176 176 176 176 176 176 
176 176 176 176 176 176 254 254 254 176 176 176 176 176 176 176 176 176 
176 176 176 176 176 176 176 176 176 254 254 254 176 176 176 176 176 176 
176 176 176 176 176 176 176 176 176 176 176 176 209 209 209 130 130 130 
255 255 255 130 130 130 209 209 209 176 176 176 176 176 176 176 176 176 
176 176 176 176 176 176 176 176 176 176 176 176 176 176 176 254 254 254 
254 254 254 254 254 254 254 254 254 176 176 176 176 176 176 176 176 176 
176 176 176 176 176 176 176 176 176 176 176 176 176 176 176 209 209 209 
130 130 130 27 62 96 95 158 223 74 117 192 74 117 192 74 117 192 74 117 192 
74 117 192 74 117 192 74 117 192 74 117 192 74 117 192 74 117 192 74 117 192 
74 117 192 74 117 192 74 117 192 74 117 192 74 117 192 74 117 192 74 117 192 
74 117 192 74 117 192 95 158 223 27 62 96 255 255 255 27 62 96 95 158 223 
74 117 192 74 117 192 74 117 192 74 117 192 74 117 192 74 117 192 254 254 254 
74 117 192 74 117 192 74 117 192 74 117 192 74 117 192 74 117 192 254 254 254 
74 117 192 74 117 192 74 117 192 74 117 192 74 117 192 74 117 192 95 158 223 
27 62 96 255 255 255 27 62 96 95 158 223 74 117 192 74 117 192 74 117 192 
74 117 192 74 117 192 74 117 192 74 117 192 74 117 192 254 254 254 254 254 254 
254 254 254 254 254 254 74 117 192 74 117 192 74 117 192 74 117 192 74 117 192 
74 117 192 74 117 192 74 117 192 95 158 223 27 62 96 255 255 255 228 193 159 
160 97 32 181 138 63 181 138 63 181 138 63 181 138 63 181 138 63 181 138 63 
181 138 63 181 138 63 181 138 63 181 138 63 181 138 63 181 138 63 181 138 63 
181 138 63 181 138 63 181 138 63 181 138 63 181 138 63 181 138 63 181 138 63 
160 97 32 228 193 159 255 255 255 228 193 159 160 97 32 181 138 63 181 138 63 
181 138 63 181 138 63 181 138 63 181 138 63 0 0 0 181 138 63 181 138 63 
181 138 63 181 138 63 181 138 63 181 138 63 0 0 0 181 138 63 181 138 63 
181 138 63 181 138 63 181 138 63 181 138 63 160 97 32 228 193 159 255 255 255 
228 193 159 160 97 32 181 138 63 181 138 63 181 138 63 181 138 63 181 138 63 
181 138 63 181 138 63 181 138 63 2 1 1 2 1 1 2 1 1 2 1 1 181 138 63 181 138 63 
181 138 63 181 138 63 181 138 63 181 138 63 181 138 63 181 138 63 160 97 32 
228 193 159 255 255 255 127 127 127 198 198 198 175 175 175 175 175 175 
175 175 175 175 175 175 175 175 175 175 175 175 175 175 175 175 175 175 
175 175 175 175 175 175 175 175 175 175 175 175 175 175 175 175 175 175 
175 175 175 175 175 175 175 175 175 175 175 175 175 175 175 175 175 175 
198 198 198 127 127 127 255 255 255 127 127 127 198 198 198 175 175 175 
175 175 175 175 175 175 175 175 175 175 175 175 175 175 175 254 254 254 
175 175 175 175 175 175 175 175 175 175 175 175 175 175 175 175 175 175 
254 254 254 175 175 175 175 175 175 175 175 175 175 175 175 175 175 175 
175 175 175 198 198 198 127 127 127 255 255 255 127 127 127 198 198 198 
175 175 175 175 175 175 175 175 175 175 175 175 175 175 175 175 175 175 
175 175 175 175 175 175 254 254 254 254 254 254 254 254 254 254 254 254 
175 175 175 175 175 175 175 175 175 175 175 175 175 175 175 175 175 175 
175 175 175 175 175 175 198 198 198 127 127 127 27 62 96 95 158 223 73 115 190 
73 115 190 73 115 190 73 115 190 73 115 190 73 115 190 73 115 190 73 115 190 
73 115 190 73 115 190 73 115 190 73 115 190 73 115 190 73 115 190 73 115 190 
73 115 190 73 115 190 73 115 190 73 115 190 73 115 190 95 158 223 27 62 96 
255 255 255 27 62 96 95 158 223 73 115 190 73 115 190 73 115 190 73 115 190 
73 115 190 73 115 190 254 254 254 73 115 190 73 115 190 73 115 190 73 115 190 
73 115 190 73 115 190 254 254 254 73 115 190 73 115 190 73 115 190 73 115 190 
73 115 190 73 115 190 95 158 223 27 62 96 255 255 255 27 62 96 95 158 223 
73 115 190 73 115 190 73 115 190 73 115 190 73 115 190 73 115 190 73 115 190 
254 254 254 254 254 254 254 254 254 254 254 254 254 254 254 254 254 254 
73 115 190 73 115 190 73 115 190 73 115 190 73 115 190 73 115 190 73 115 190 
95 158 223 27 62 96 255 255 255 228 193 159 160 97 32 182 140 65 182 140 65 
182 140 65 182 140 65 182 140 65 182 140 65 182 140 65 182 140 65 182 140 65 
182 140 65 182 140 65 182 140 65 182 140 65 182 140 65 182 140 65 182 140 65 
182 140 65 182 140 65 182 140 65 182 140 65 160 97 32 228 193 159 255 255 255 
228 193 159 160 97 32 182 140 65 182 140 65 182 140 65 182 140 65 182 140 65 
182 140 65 0 0 0 182 140 65 182 140 65 182 140 65 182 140 65 182 140 65 
182 140 65 0 0 0 182 140 65 182 140 65 182 140 65 182 140 65 182 140 65 
182 140 65 160 97 32 228 193 159 255 255 255 228 193 159 160 97 32 182 140 65 
182 140 65 182 140 65 182 140 65 182 140 65 182 140 65 182 140 65 2 1 1 
2 1 1 2 1 1 2 1 1 2 1 1 2 1 1 182 140 65 182 140 65 182 140 65 182 140 65 
182 140 65 182 140 65 182 140 65 160 97 32 228 193 159 255 255 255 127 127 127 
198 198 198 174 174 174 174 174 174 174 174 174 174 174 174 174 174 174 
174 174 174 174 174 174 174 174 174 174 174 174 174 174 174 174 174 174 
174 174 174 174 174 174 174 174 174 174 174 174 174 174 174 174 174 174 
174 174 174 174 174 174 174 174 174 198 198 198 127 127 127 255 255 255 
127 127 127 198 198 198 174 174 174 174 174 174 174 174 174 174 174 174 
174 174 174 174 174 174 254 254 254 174 174 174 174 174 174 174 174 174 
174 174 174 174 174 174 174 174 174 254 254 254 174 174 174 174 174 174 
174 174 174 174 174 174 174 174 174 174 174 174 198 198 198 127 127 127 
255 255 255 127 127 127 198 198 198 174 174 174 174 174 174 174 174 174 
174 174 174 174 174 174 174 174 174 174 174 174 254 254 254 254 254 254 
254 254 254 254 254 254 254 254 254 254 254 254 174 174 174 174 174 174 
174 174 174 174 174 174 174 174 174 174 174 174 174 174 174 198 198 198 
127 127 127 27 62 96 96 160 224 71 113 188 71 113 188 71 113 188 71 113 188 
71 113 188 71 113 188 254 254 254 254 254 254 254 254 254 254 254 254 254 254 254 
254 254 254 254 254 254 254 254 254 71 113 188 71 113 188 71 113 188 71 113 188 
71 113 188 71 113 188 96 160 224 27 62 96 255 255 255 27 62 96 96 160 224 
71 113 188 71 113 188 71 113 188 71 113 188 71 113 188 71 113 188 254 254 254 
71 113 188 71 113 188 71 113 188 71 113 188 71 113 188 71 113 188 254 254 254 
71 113 188 71 113 188 71 113 188 71 113 188 71 113 188 71 113 188 96 160 224 
27 62 96 255 255 255 27 62 96 96 160 224 71 113 188 71 113 188 71 113 188 
71 113 188 71 113 188 71 113 188 254 254 254 254 254 254 254 254 254 71 113 188 
71 113 188 254 254 254 254 254 254 254 254 254 71 113 188 71 113 188 71 113 188 
71 113 188 71 113 188 71 113 188 96 160 224 27 62 96 255 255 255 228 193 159 
159 95 31 184 142 67 184 142 67 184 142 67 184 142 67 184 142 67 184 142 67 
2 1 1 2 1 1 2 1 1 2 1 1 2 1 1 2 1 1 2 1 1 2 1 1 184 142 67 184 142 67 184 142 67 
184 142 67 184 142 67 184 142 67 159 95 31 228 193 159 255 255 255 228 193 159 
159 95 31 184 142 67 184 142 67 184 142 67 184 142 67 184 142 67 184 142 67 
0 0 0 184 142 67 184 142 67 184 142 67 184 142 67 184 142 67 184 142 67 
0 0 0 184 142 67 184 142 67 184 142 67 184 142 67 184 142 67 184 142 67 
159 95 31 228 193 159 255 255 255 228 193 159 159 95 31 184 142 67 184 142 67 
184 142 67 184 142 67 184 142 67 184 142 67 2 1 1 2 1 1 2 1 1 184 142 67 
184 142 67 2 1 1 2 1 1 2 1 1 184 142 67 184 142 67 184 142 67 184 142 67 
184 142 67 184 142 67 159 95 31 228 193 159 255 255 255 127 127 127 199 199 199 
173 173 173 173 173 173 173 173 173 173 173 173 173 173 173 173 173 173 
254 254 254 254 254 254 254 254 254 254 254 254 254 254 254 254 254 254 
254 254 254 254 254 254 173 173 173 173 173 173 173 173 173 173 173 173 
173 173 173 173 173 173 199 199 199 127 127 127 255 255 255 127 127 127 
199 199 199 173 173 173 173 173 173 173 173 173 173 173 173 173 173 173 
173 173 173 254 254 254 173 173 173 173 173 173 173 173 173 173 173 173 
173 173 173 173 173 173 254 254 254 173 173 173 173 173 173 173 173 173 
173 173 173 173 173 173 173 173 173 199 199 199 127 127 127 255 255 255 
127 127 127 199 199 199 173 173 173 173 173 173 173 173 173 173 173 173 
173 173 173 173 173 173 254 254 254 254 254 254 254 254 254 173 173 173 
173 173 173 254 254 254 254 254 254 254 254 254 173 173 173 173 173 173 
173 173 173 173 173 173 173 173 173 173 173 173 199 199 199 127 127 127 
27 62 96 98 161 224 70 111 185 70 111 185 70 111 185 70 111 185 70 111 185 
70 111 185 254 254 254 254 254 254 254 254 254 254 254 254 254 254 254 
254 254 254 254 254 254 254 254 254 70 111 185 70 111 185 70 111 185 70 111 185 
70 111 185 70 111 185 98 161 224 27 62 96 255 255 255 27 62 96 98 161 224 
70 111 185 70 111 185 70 111 185 70 111 185 70 111 185 70 111 185 254 254 254 
254 254 254 254 254 254 254 254 254 254 254 254 254 254 254 254 254 254 
254 254 254 70 111 185 70 111 185 70 111 185 70 111 185 70 111 185 70 111 185 
98 161 224 27 62 96 255 255 255 27 62 96 98 161 224 70 111 185 70 111 185 
70 111 185 70 111 185 70 111 185 70 111 185 254 254 254 254 254 254 70 111 185 
70 111 185 70 111 185 70 111 185 254 254 254 254 254 254 70 111 185 70 111 185 
70 111 185 70 111 185 70 111 185 70 111 185 98 161 224 27 62 96 255 255 255 
228 193 159 157 94 31 185 144 70 185 144 70 185 144 70 185 144 70 185 144 70 
185 144 70 2 1 1 2 1 1 2 1 1 2 1 1 2 1 1 2 1 1 2 1 1 2 1 1 185 144 70 185 144 70 
185 144 70 185 144 70 185 144 70 185 144 70 157 94 31 228 193 159 255 255 255 
228 193 159 157 94 31 185 144 70 185 144 70 185 144 70 185 144 70 185 144 70 
185 144 70 0 0 0 0 0 0 0 0 0 0 0 0 0 0 0 0 0 0 0 0 0 0 0 0 185 144 70 185 144 70 
185 144 70 185 144 70 185 144 70 185 144 70 157 94 31 228 193 159 255 255 255 
228 193 159 157 94 31 185 144 70 185 144 70 185 144 70 185 144 70 185 144 70 
185 144 70 2 1 1 2 1 1 185 144 70 185 144 70 185 144 70 185 144 70 2 1 1 
2 1 1 185 144 70 185 144 70 185 144 70 185 144 70 185 144 70 185 144 70 
157 94 31 228 193 159 255 255 255 127 127 127 200 200 200 171 171 171 171 171 171 
171 171 171 171 171 171 171 171 171 171 171 171 254 254 254 254 254 254 
254 254 254 254 254 254 254 254 254 254 254 254 254 254 254 254 254 254 
171 171 171 171 171 171 171 171 171 171 171 171 171 171 171 171 171 171 
200 200 200 127 127 127 255 255 255 127 127 127 200 200 200 171 171 171 
171 171 171 171 171 171 171 171 171 171 171 171 171 171 171 254 254 254 
254 254 254 254 254 254 254 254 254 254 254 254 254 254 254 254 254 254 
254 254 254 171 171 171 171 171 171 171 171 171 171 171 171 171 171 171 
171 171 171 200 200 200 127 127 127 255 255 255 127 127 127 200 200 200 
171 171 171 171 171 171 171 171 171 171 171 171 171 171 171 171 171 171 
254 254 254 254 254 254 171 171 171 171 171 171 171 171 171 171 171 171 
254 254 254 254 254 254 171 171 171 171 171 171 171 171 171 171 171 171 
171 171 171 171 171 171 200 200 200 127 127 127 27 63 97 99 162 224 69 110 183 
69 110 183 69 110 183 69 110 183 69 110 183 69 110 183 69 110 183 69 110 183 
69 110 183 69 110 183 69 110 183 69 110 183 69 110 183 69 110 183 69 110 183 
69 110 183 69 110 183 69 110 183 69 110 183 69 110 183 99 162 224 27 63 97 
255 255 255 27 63 97 99 162 224 69 110 183 69 110 183 69 110 183 69 110 183 
69 110 183 69 110 183 69 110 183 69 110 183 69 110 183 69 110 183 69 110 183 
69 110 183 69 110 183 69 110 183 69 110 183 69 110 183 69 110 183 69 110 183 
69 110 183 69 110 183 99 162 224 27 63 97 255 255 255 27 63 97 99 162 224 
69 110 183 69 110 183 69 110 183 69 110 183 69 110 183 69 110 183 69 110 183 
69 110 183 69 110 183 69 110 183 69 110 183 69 110 183 69 110 183 69 110 183 
69 110 183 69 110 183 69 110 183 69 110 183 69 110 183 69 110 183 99 162 224 
27 63 97 255 255 255 228 192 158 156 93 31 186 145 72 186 145 72 186 145 72 
186 145 72 186 145 72 186 145 72 186 145 72 186 145 72 186 145 72 186 145 72 
186 145 72 186 145 72 186 145 72 186 145 72 186 145 72 186 145 72 186 145 72 
186 145 72 186 145 72 186 145 72 156 93 31 228 192 158 255 255 255 228 192 158 
156 93 31 186 145 72 186 145 72 186 145 72 186 145 72 186 145 72 186 145 72 
186 145 72 186 145 72 186 145 72 186 145 72 186 145 72 186 145 72 186 145 72 
186 145 72 186 145 72 186 145 72 186 145 72 186 145 72 186 145 72 186 145 72 
156 93 31 228 192 158 255 255 255 228 192 158 156 93 31 186 145 72 186 145 72 
186 145 72 186 145 72 186 145 72 186 145 72 186 145 72 186 145 72 186 145 72 
186 145 72 186 145 72 186 145 72 186 145 72 186 145 72 186 145 72 186 145 72 
186 145 72 186 145 72 186 145 72 186 145 72 156 93 31 228 192 158 255 255 255 
127 127 127 200 200 200 170 170 170 170 170 170 170 170 170 170 170 170 
170 170 170 170 170 170 170 170 170 170 170 170 170 170 170 170 170 170 
170 170 170 170 170 170 170 170 170 170 170 170 170 170 170 170 170 170 
170 170 170 170 170 170 170 170 170 170 170 170 200 200 200 127 127 127 
255 255 255 127 127 127 200 200 200 170 170 170 170 170 170 170 170 170 
170 170 170 170 170 170 170 170 170 170 170 170 170 170 170 170 170 170 
170 170 170 170 170 170 170 170 170 170 170 170 170 170 170 170 170 170 
170 170 170 170 170 170 170 170 170 170 170 170 170 170 170 200 200 200 
127 127 127 255 255 255 127 127 127 200 200 200 170 170 170 170 170 170 
170 170 170 170 170 170 170 170 170 170 170 170 170 170 170 170 170 170 
170 170 170 170 170 170 170 170 170 170 170 170 170 170 170 170 170 170 
170 170 170 170 170 170 170 170 170 170 170 170 170 170 170 170 170 170 
200 200 200 127 127 127 27 63 97 101 163 225 67 108 181 67 108 181 67 108 181 
67 108 181 67 108 181 67 108 181 67 108 181 67 108 181 67 108 181 67 108 181 
67 108 181 67 108 181 67 108 181 67 108 181 67 108 181 67 108 181 67 108 181 
67 108 181 67 108 181 67 108 181 101 163 225 27 63 97 255 255 255 27 63 97 
101 163 225 67 108 181 67 108 181 67 108 181 67 108 181 67 108 181 67 108 181 
67 108 181 67 108 181 67 108 181 67 108 181 67 108 181 67 108 181 67 108 181 
67 108 181 67 108 181 67 108 181 67 108 181 67 108 181 67 108 181 67 108 181 
101 163 225 27 63 97 255 255 255 27 63 97 101 163 225 67 108 181 67 108 181 
67 108 181 67 108 181 67 108 181 67 108 181 67 108 181 67 108 181 67 108 181 
67 108 181 67 108 181 67 108 181 67 108 181 67 108 181 67 108 181 67 108 181 
67 108 181 67 108 181 67 108 181 67 108 181 101 163 225 27 63 97 255 255 255 
228 192 158 154 92 30 188 147 74 188 147 74 188 147 74 188 147 74 188 147 74 
188 147 74 188 147 74 188 147 74 188 147 74 188 147 74 188 147 74 188 147 74 
188 147 74 188 147 74 188 147 74 188 147 74 188 147 74 188 147 74 188 147 74 
188 147 74 154 92 30 228 192 158 255 255 255 228 192 158 154 92 30 188 147 74 
188 147 74 188 147 74 188 147 74 188 147 74 188 147 74 188 147 74 188 147 74 
188 147 74 188 147 74 188 147 74 188 147 74 188 147 74 188 147 74 188 147 74 
188 147 74 188 147 74 188 147 74 188 147 74 188 147 74 154 92 30 228 192 158 
255 255 255 228 192 158 154 92 30 188 147 74 188 147 74 188 147 74 188 147 74 
188 147 74 188 147 74 188 147 74 188 147 74 188 147 74 188 147 74 188 147 74 
188 147 74 188 147 74 188 147 74 188 147 74 188 147 74 188 147 74 188 147 74 
188 147 74 188 147 74 154 92 30 228 192 158 255 255 255 127 127 127 201 201 201 
169 169 169 169 169 169 169 169 169 169 169 169 169 169 169 169 169 169 
169 169 169 169 169 169 169 169 169 169 169 169 169 169 169 169 169 169 
169 169 169 169 169 169 169 169 169 169 169 169 169 169 169 169 169 169 
169 169 169 169 169 169 201 201 201 127 127 127 255 255 255 127 127 127 
201 201 201 169 169 169 169 169 169 169 169 169 169 169 169 169 169 169 
169 169 169 169 169 169 169 169 169 169 169 169 169 169 169 169 169 169 
169 169 169 169 169 169 169 169 169 169 169 169 169 169 169 169 169 169 
169 169 169 169 169 169 169 169 169 201 201 201 127 127 127 255 255 255 
127 127 127 201 201 201 169 169 169 169 169 169 169 169 169 169 169 169 
169 169 169 169 169 169 169 169 169 169 169 169 169 169 169 169 169 169 
169 169 169 169 169 169 169 169 169 169 169 169 169 169 169 169 169 169 
169 169 169 169 169 169 169 169 169 169 169 169 201 201 201 127 127 127 
27 63 97 102 164 225 66 106 179 66 106 179 66 106 179 66 106 179 66 106 179 
66 106 179 66 106 179 66 106 179 66 106 179 66 106 179 66 106 179 66 106 179 
66 106 179 66 106 179 66 106 179 66 106 179 66 106 179 66 106 179 66 106 179 
66 106 179 102 164 225 27 63 97 255 255 255 27 63 97 102 164 225 66 106 179 
66 106 179 66 106 179 66 106 179 66 106 179 66 106 179 66 106 179 66 106 179 
66 106 179 66 106 179 66 106 179 66 106 179 66 106 179 66 106 179 66 106 179 
66 106 179 66 106 179 66 106 179 66 106 179 66 106 179 102 164 225 27 63 97 
255 255 255 27 63 97 102 164 225 66 106 179 66 106 179 66 106 179 66 106 179 
66 106 179 66 106 179 66 106 179 66 106 179 66 106 179 66 106 179 66 106 179 
66 106 179 66 106 179 66 106 179 66 106 179 66 106 179 66 106 179 66 106 179 
66 106 179 66 106 179 102 164 225 27 63 97 255 255 255 228 192 158 153 91 30 
189 149 76 189 149 76 189 149 76 189 149 76 189 149 76 189 149 76 189 149 76 
189 149 76 189 149 76 189 149 76 189 149 76 189 149 76 189 149 76 189 149 76 
189 149 76 189 149 76 189 149 76 189 149 76 189 149 76 189 149 76 153 91 30 
228 192 158 255 255 255 228 192 158 153 91 30 189 149 76 189 149 76 189 149 76 
189 149 76 189 149 76 189 149 76 189 149 76 189 149 76 189 149 76 189 149 76 
189 149 76 189 149 76 189 149 76 189 149 76 189 149 76 189 149 76 189 149 76 
189 149 76 189 149 76 189 149 76 153 91 30 228 192 158 255 255 255 228 192 158 
153 91 30 189 149 76 189 149 76 189 149 76 189 149 76 189 149 76 189 149 76 
189 149 76 189 149 76 189 149 76 189 149 76 189 149 76 189 149 76 189 149 76 
189 149 76 189 149 76 189 149 76 189 149 76 189 149 76 189 149 76 189 149 76 
153 91 30 228 192 158 255 255 255 127 127 127 202 202 202 168 168 168 168 168 168 
168 168 168 168 168 168 168 168 168 168 168 168 168 168 168 168 168 168 
168 168 168 168 168 168 168 168 168 168 168 168 168 168 168 168 168 168 
168 168 168 168 168 168 168 168 168 168 168 168 168 168 168 168 168 168 
202 202 202 127 127 127 255 255 255 127 127 127 202 202 202 168 168 168 
168 168 168 168 168 168 168 168 168 168 168 168 168 168 168 168 168 168 
168 168 168 168 168 168 168 168 168 168 168 168 168 168 168 168 168 168 
168 168 168 168 168 168 168 168 168 168 168 168 168 168 168 168 168 168 
168 168 168 202 202 202 127 127 127 255 255 255 127 127 127 202 202 202 
168 168 168 168 168 168 168 168 168 168 168 168 168 168 168 168 168 168 
168 168 168 168 168 168 168 168 168 168 168 168 168 168 168 168 168 168 
168 168 168 168 168 168 168 168 168 168 168 168 168 168 168 168 168 168 
168 168 168 168 168 168 202 202 202 127 127 127 27 63 97 62 136 212 104 165 225 
104 165 225 104 165 225 104 165 225 104 165 225 104 165 225 104 165 225 
104 165 225 104 165 225 104 165 225 104 165 225 104 165 225 104 165 225 
104 165 225 104 165 225 104 165 225 104 165 225 104 165 225 104 165 225 
104 165 225 62 136 212 27 63 97 255 255 255 27 63 97 62 136 212 104 165 225 
104 165 225 104 165 225 104 165 225 104 165 225 104 165 225 104 165 225 
104 165 225 104 165 225 104 165 225 104 165 225 104 165 225 104 165 225 
104 165 225 104 165 225 104 165 225 104 165 225 104 165 225 104 165 225 
104 165 225 62 136 212 27 63 97 255 255 255 27 63 97 62 136 212 104 165 225 
104 165 225 104 165 225 104 165 225 104 165 225 104 165 225 104 165 225 
104 165 225 104 165 225 104 165 225 104 165 225 104 165 225 104 165 225 
104 165 225 104 165 225 104 165 225 104 165 225 104 165 225 104 165 225 
104 165 225 62 136 212 27 63 97 255 255 255 228 192 158 193 119 43 151 90 30 
151 90 30 151 90 30 151 90 30 151 90 30 151 90 30 151 90 30 151 90 30 151 90 30 
151 90 30 151 90 30 151 90 30 151 90 30 151 90 30 151 90 30 151 90 30 151 90 30 
151 90 30 151 90 30 151 90 30 193 119 43 228 192 158 255 255 255 228 192 158 
193 119 43 151 90 30 151 90 30 151 90 30 151 90 30 151 90 30 151 90 30 
151 90 30 151 90 30 151 90 30 151 90 30 151 90 30 151 90 30 151 90 30 151 90 30 
151 90 30 151 90 30 151 90 30 151 90 30 151 90 30 151 90 30 193 119 43 
228 192 158 255 255 255 228 192 158 193 119 43 151 90 30 151 90 30 151 90 30 
151 90 30 151 90 30 151 90 30 151 90 30 151 90 30 151 90 30 151 90 30 151 90 30 
151 90 30 151 90 30 151 90 30 151 90 30 151 90 30 151 90 30 151 90 30 151 90 30 
151 90 30 193 119 43 228 192 158 255 255 255 127 127 127 182 182 182 202 202 202 
202 202 202 202 202 202 202 202 202 202 202 202 202 202 202 202 202 202 
202 202 202 202 202 202 202 202 202 202 202 202 202 202 202 202 202 202 
202 202 202 202 202 202 202 202 202 202 202 202 202 202 202 202 202 202 
202 202 202 182 182 182 127 127 127 255 255 255 127 127 127 182 182 182 
202 202 202 202 202 202 202 202 202 202 202 202 202 202 202 202 202 202 
202 202 202 202 202 202 202 202 202 202 202 202 202 202 202 202 202 202 
202 202 202 202 202 202 202 202 202 202 202 202 202 202 202 202 202 202 
202 202 202 202 202 202 182 182 182 127 127 127 255 255 255 127 127 127 
182 182 182 202 202 202 202 202 202 202 202 202 202 202 202 202 202 202 
202 202 202 202 202 202 202 202 202 202 202 202 202 202 202 202 202 202 
202 202 202 202 202 202 202 202 202 202 202 202 202 202 202 202 202 202 
202 202 202 202 202 202 202 202 202 182 182 182 127 127 127 255 255 255 
23 54 84 23 54 84 23 54 84 23 54 84 23 54 84 23 54 84 23 54 84 23 54 84 
23 54 84 23 54 84 23 54 84 23 54 84 23 54 84 23 54 84 23 54 84 23 54 84 
23 54 84 23 54 84 23 54 84 23 54 84 23 54 84 23 54 84 255 255 255 255 255 255 
255 255 255 23 54 84 23 54 84 23 54 84 23 54 84 23 54 84 23 54 84 23 54 84 
23 54 84 23 54 84 23 54 84 23 54 84 23 54 84 23 54 84 23 54 84 23 54 84 
23 54 84 23 54 84 23 54 84 23 54 84 23 54 84 23 54 84 23 54 84 255 255 255 
255 255 255 255 255 255 23 54 84 23 54 84 23 54 84 23 54 84 23 54 84 23 54 84 
23 54 84 23 54 84 23 54 84 23 54 84 23 54 84 23 54 84 23 54 84 23 54 84 
23 54 84 23 54 84 23 54 84 23 54 84 23 54 84 23 54 84 23 54 84 23 54 84 
255 255 255 255 255 255 255 255 255 232 201 171 232 201 171 232 201 171 
232 201 171 232 201 171 232 201 171 232 201 171 232 201 171 232 201 171 
232 201 171 232 201 171 232 201 171 232 201 171 232 201 171 232 201 171 
232 201 171 232 201 171 232 201 171 232 201 171 232 201 171 232 201 171 
232 201 171 255 255 255 255 255 255 255 255 255 232 201 171 232 201 171 
232 201 171 232 201 171 232 201 171 232 201 171 232 201 171 232 201 171 
232 201 171 232 201 171 232 201 171 232 201 171 232 201 171 232 201 171 
232 201 171 232 201 171 232 201 171 232 201 171 232 201 171 232 201 171 
232 201 171 232 201 171 255 255 255 255 255 255 255 255 255 232 201 171 
232 201 171 232 201 171 232 201 171 232 201 171 232 201 171 232 201 171 
232 201 171 232 201 171 232 201 171 232 201 171 232 201 171 232 201 171 
232 201 171 232 201 171 232 201 171 232 201 171 232 201 171 232 201 171 
232 201 171 232 201 171 232 201 171 255 255 255 255 255 255 255 255 255 
119 119 119 119 119 119 119 119 119 119 119 119 119 119 119 119 119 119 
119 119 119 119 119 119 119 119 119 119 119 119 119 119 119 119 119 119 
119 119 119 119 119 119 119 119 119 119 119 119 119 119 119 119 119 119 
119 119 119 119 119 119 119 119 119 119 119 119 255 255 255 255 255 255 
255 255 255 119 119 119 119 119 119 119 119 119 119 119 119 119 119 119 
119 119 119 119 119 119 119 119 119 119 119 119 119 119 119 119 119 119 
119 119 119 119 119 119 119 119 119 119 119 119 119 119 119 119 119 119 
119 119 119 119 119 119 119 119 119 119 119 119 119 119 119 255 255 255 
255 255 255 255 255 255 119 119 119 119 119 119 119 119 119 119 119 119 
119 119 119 119 119 119 119 119 119 119 119 119 119 119 119 119 119 119 
119 119 119 119 119 119 119 119 119 119 119 119 119 119 119 119 119 119 
119 119 119 119 119 119 119 119 119 119 119 119 119 119 119 119 119 119 
255 255 255 
